<svg id="Capa_1" enable-background="new 0 0 512 512" height="512" viewBox="0 0 512 512" width="512" xmlns="http://www.w3.org/2000/svg"><g><g><path d="m479.069 434.38h-446.138c-14.045 0-25.431-11.386-25.431-25.431v-16.13c0-3.677 2.98-6.657 6.657-6.657h483.686c3.677 0 6.657 2.98 6.657 6.657v16.13c0 14.045-11.386 25.431-25.431 25.431z" fill="#bed9fd"/></g><g><path d="m458.846 469.256h-405.692c-7.338 0-13.287-5.949-13.287-13.287v-21.589h432.266v21.589c0 7.338-5.949 13.287-13.287 13.287z" fill="#9ec8fc"/></g><g><path d="m497.843 386.162h-30c3.677 0 6.657 2.98 6.657 6.657v16.13c0 14.045-11.386 25.431-25.431 25.431h30c14.045 0 25.431-11.386 25.431-25.431v-16.13c0-3.676-2.98-6.657-6.657-6.657z" fill="#9ec8fc"/></g><g><path d="m442.133 434.38v21.589c0 7.338-5.949 13.287-13.287 13.287h30c7.338 0 13.287-5.949 13.287-13.287v-21.589z" fill="#80b6fc"/></g><g><ellipse cx="301.13" cy="150.438" fill="#e0555c" rx="25.628" ry="25.628" transform="matrix(.707 -.707 .707 .707 -18.177 256.993)"/></g><g><ellipse cx="218.449" cy="150.438" fill="#e0555c" rx="25.628" ry="25.628" transform="matrix(.707 -.707 .707 .707 -42.394 198.529)"/></g><g><circle cx="256" cy="143.244" fill="#f67379" r="32.822"/></g><g><path d="m424.102 386.162h-336.203c-14.496 0-26.248-11.751-26.248-26.248 0-14.496 11.751-26.248 26.248-26.248h336.203c14.496 0 26.248 11.751 26.248 26.248 0 14.497-11.752 26.248-26.248 26.248z" fill="#d8ab83"/></g><g><path d="m424.102 333.667h-336.203c-14.496 0-26.248-11.752-26.248-26.248 0-14.496 11.751-26.248 26.248-26.248h336.203c14.496 0 26.248 11.752 26.248 26.248 0 14.496-11.752 26.248-26.248 26.248z" fill="#f7e8cb"/></g><g><path d="m424.102 281.171h-336.203c-14.496 0-26.248-11.751-26.248-26.248 0-14.496 11.751-26.248 26.248-26.248h336.203c14.496 0 26.248 11.752 26.248 26.248 0 14.496-11.752 26.248-26.248 26.248z" fill="#d8ab83"/></g><g><path d="m424.102 228.675h-336.203c-14.496 0-26.248-11.752-26.248-26.248 0-14.496 11.751-26.248 26.248-26.248h336.203c14.496 0 26.248 11.751 26.248 26.248 0 14.497-11.752 26.248-26.248 26.248z" fill="#f7e8cb"/></g><g><path d="m424.102 333.667h-30c14.496 0 26.248 11.752 26.248 26.248 0 14.496-11.751 26.248-26.248 26.248h30c14.496 0 26.248-11.751 26.248-26.248 0-14.497-11.752-26.248-26.248-26.248z" fill="#c9976b"/></g><g><path d="m424.102 281.171h-30c14.496 0 26.248 11.751 26.248 26.248 0 14.496-11.751 26.248-26.248 26.248h30c14.496 0 26.248-11.752 26.248-26.248 0-14.497-11.752-26.248-26.248-26.248z" fill="#f7dfaf"/></g><g><path d="m424.102 228.675h-30c14.496 0 26.248 11.752 26.248 26.248s-11.751 26.248-26.248 26.248h30c14.496 0 26.248-11.752 26.248-26.248s-11.752-26.248-26.248-26.248z" fill="#c9976b"/></g><g><path d="m424.102 176.179h-30c14.496 0 26.248 11.751 26.248 26.248 0 14.496-11.751 26.248-26.248 26.248h30c14.496 0 26.248-11.751 26.248-26.248 0-14.496-11.752-26.248-26.248-26.248z" fill="#f7dfaf"/></g><g><path d="m206.361 176.179h-49.947v108.317c0 13.793 11.181 24.974 24.974 24.974 13.793 0 24.974-11.181 24.974-24.974v-29.574h12.493c12.114 0 21.934-9.82 21.934-21.934v-56.81h-34.428z" fill="#eabe71"/></g><g><path d="m210.788 176.179v56.81c0 12.114-9.82 21.934-21.934 21.934-6.9 0-12.493 5.593-12.493 12.493v17.081c0 8.163-3.917 15.41-9.974 19.967 4.116 3.097 9.218 4.952 14.753 5.006 13.872.135 25.221-11.708 25.221-25.581v-28.965h12.493c12.114 0 21.934-9.82 21.934-21.934v-56.81h-30z" fill="#d9ad5f"/></g><path d="m497.843 378.662h-45.696c3.599-5.366 5.702-11.815 5.702-18.748 0-10.593-4.909-20.056-12.568-26.248 7.658-6.192 12.568-15.655 12.568-26.248s-4.909-20.056-12.568-26.248c7.658-6.192 12.568-15.655 12.568-26.247 0-10.593-4.909-20.056-12.568-26.248 7.658-6.192 12.568-15.655 12.568-26.248 0-18.608-15.139-33.748-33.747-33.748h-95.338c3.467-5.236 5.493-11.505 5.493-18.241 0-18.267-14.86-33.127-33.127-33.127-4.26 0-8.483.832-12.408 2.415-6.379-8.85-16.249-15.015-27.579-16.464-6.443-17.653-2.115-37.736 11.392-51.149l4.073-4.045c2.938-2.919 2.955-7.667.036-10.606-2.919-2.94-7.668-2.955-10.606-.037l-4.073 4.045c-16.627 16.514-22.634 40.753-16.268 62.8-8.228 2.173-15.607 6.916-21.04 13.633-2.039-.387-4.118-.592-6.208-.592-18.267 0-33.127 14.861-33.127 33.127 0 6.736 2.026 13.006 5.493 18.241h-102.917c-18.608 0-33.747 15.139-33.747 33.748 0 10.593 4.91 20.056 12.568 26.248-7.658 6.192-12.568 15.655-12.568 26.248 0 10.592 4.91 20.056 12.568 26.247-7.658 6.192-12.568 15.655-12.568 26.248s4.91 20.056 12.568 26.248c-7.658 6.192-12.568 15.655-12.568 26.248 0 6.92 2.074 13.373 5.656 18.748h-45.65c-7.806 0-14.157 6.351-14.157 14.158v16.129c0 17.969 14.469 32.614 32.367 32.917v14.103c0 11.462 9.325 20.787 20.787 20.787h405.692c11.462 0 20.787-9.325 20.787-20.787v-14.103c17.898-.304 32.367-14.948 32.367-32.917v-16.129c0-7.807-6.35-14.158-14.157-14.158zm-54.994-176.235c0 10.337-8.41 18.748-18.747 18.748h-42.254c-4.143 0-7.5 3.358-7.5 7.5s3.357 7.5 7.5 7.5h42.254c10.337 0 18.747 8.41 18.747 18.748 0 10.337-8.41 18.747-18.747 18.747h-210.241v-11.247h4.993c15.153 0 27.664-11.512 29.258-26.248h103.736c4.143 0 7.5-3.358 7.5-7.5s-3.357-7.5-7.5-7.5h-103.56v-37.496h175.815c10.336 0 18.746 8.411 18.746 18.748zm-278.935-18.748h69.374v49.31c0 7.959-6.475 14.434-14.434 14.434h-4.993v-35.549c0-4.142-3.358-7.5-7.5-7.5s-7.5 3.358-7.5 7.5v43.049 29.573c0 9.635-7.839 17.474-17.474 17.474s-17.474-7.839-17.474-17.474v-100.817zm137.216-51.368c9.995 0 18.127 8.132 18.127 18.128s-8.132 18.128-18.127 18.128c-.429 0-.846.044-1.255.113h-12.616c5.661-6.944 9.063-15.799 9.063-25.436 0-3.413-.43-6.726-1.232-9.893 1.93-.679 3.975-1.04 6.04-1.04zm-45.143-14.389c.006 0 .012.001.018.001.007 0 .013-.001.02-.001 13.951.014 25.297 11.367 25.297 25.322 0 13.963-11.359 25.322-25.322 25.322s-25.322-11.359-25.322-25.322c0-5.075 1.494-9.969 4.32-14.153 4.723-6.99 12.568-11.164 20.989-11.169zm-37.538 50.644c-9.996 0-18.127-8.132-18.127-18.128 0-9.569 7.458-17.41 16.864-18.063-.981 3.511-1.507 7.157-1.507 10.869 0 9.637 3.402 18.492 9.063 25.436h-5.037c-.41-.07-.827-.114-1.256-.114zm-149.298 33.861c0-10.337 8.41-18.748 18.747-18.748h61.015v37.496h-61.015c-10.337 0-18.747-8.41-18.747-18.748zm0 52.496c0-10.338 8.41-18.748 18.747-18.748h61.015v37.496h-61.015c-10.337 0-18.747-8.41-18.747-18.748zm0 52.496c0-10.338 8.41-18.748 18.747-18.748h61.293c2.056 15.941 15.705 28.3 32.196 28.3s30.141-12.359 32.197-28.3h210.518c10.337 0 18.747 8.41 18.747 18.748s-8.41 18.748-18.747 18.748h-336.204c-10.337 0-18.747-8.41-18.747-18.748zm16.77 71.141c-9.561-.998-16.77-9.014-16.77-18.646 0-10.337 8.41-18.748 18.747-18.748h336.204c10.337 0 18.747 8.41 18.747 18.748s-8.41 18.748-18.747 18.748h-337.523c-.216-.042-.435-.079-.658-.102zm411.079 30.389c0 9.887-8.044 17.931-17.932 17.931h-267.694c-4.142 0-7.5 3.358-7.5 7.5s3.358 7.5 7.5 7.5h253.259v14.089c0 3.191-2.596 5.787-5.787 5.787h-405.692c-3.191 0-5.787-2.596-5.787-5.787v-14.089h134.007c4.142 0 7.5-3.358 7.5-7.5s-3.358-7.5-7.5-7.5h-148.443c-9.887 0-17.931-8.044-17.931-17.931v-15.287h482z"/></g></svg>