<?xml version="1.0" encoding="iso-8859-1"?>
<!-- Generator: Adobe Illustrator 19.0.0, SVG Export Plug-In . SVG Version: 6.00 Build 0)  -->
<svg version="1.1" id="Capa_1" xmlns="http://www.w3.org/2000/svg" xmlns:xlink="http://www.w3.org/1999/xlink" x="0px" y="0px"
	 viewBox="0 0 511.999 511.999" style="enable-background:new 0 0 511.999 511.999;" xml:space="preserve">
<path style="fill:#1BCF92;" d="M479.691,199.848H32.308c-12.32,0-22.308,9.988-22.308,22.308l0,0
	c0,10.448,7.251,19.52,17.454,21.768c23.242,5.119,37.261,37.879,68.517,37.879c39.982,0,39.982-40.223,79.964-40.223
	c39.98,0,39.98,40.223,79.968,40.223h0.194c39.987,0,39.987-40.223,79.969-40.223s39.982,40.223,79.963,40.223
	c31.256,0,45.275-32.76,68.517-37.879c10.203-2.247,17.454-11.32,17.454-21.768l0,0
	C501.999,209.835,492.012,199.848,479.691,199.848z"/>
<g>
	<path style="fill:#FF5F5F;" d="M175.935,241.58c-39.982,0-39.982,40.223-79.964,40.223h159.932
		C215.915,281.802,215.915,241.58,175.935,241.58z"/>
	<path style="fill:#FF5F5F;" d="M14.676,235.829c-1.054,3.32-1.624,6.856-1.624,10.526v0.707c0,19.187,15.554,34.74,34.74,34.74
		h48.179c-31.256,0-45.276-32.76-68.517-37.879C22.227,242.772,17.775,239.83,14.676,235.829z"/>
	<path style="fill:#FF5F5F;" d="M484.545,243.924c-23.242,5.119-37.261,37.879-68.517,37.879h48.179
		c19.187,0,34.74-15.554,34.74-34.74v-0.707c0-3.67-0.57-7.206-1.624-10.526C494.224,239.83,489.772,242.772,484.545,243.924z"/>
	<path style="fill:#FF5F5F;" d="M336.065,241.58c-39.982,0-39.982,40.223-79.969,40.223h159.932
		C376.047,281.802,376.047,241.58,336.065,241.58z"/>
</g>
<path style="fill:#FF8859;" d="M480.026,199.848H31.973v-5.266c0-70.156,56.872-127.028,127.028-127.028h193.996
	c70.156,0,127.028,56.872,127.028,127.028L480.026,199.848L480.026,199.848z"/>
<g>
	<polygon style="fill:#FFD15C;" points="277.716,380.112 169.303,281.802 386.129,281.802 	"/>
	<polygon style="fill:#FFD15C;" points="386.129,281.802 317.869,343.703 358.021,380.112 466.434,281.802 	"/>
</g>
<path style="fill:#F2995E;" d="M389.033,351.99l-31.012,28.122l-31.012-28.122h-18.281l-31.012,28.122l-31.012-28.122H31.973v28.275
	c0,35.13,28.478,63.608,63.608,63.608h320.836c35.13,0,63.608-28.479,63.608-63.608V351.99H389.033z"/>
<g>
	<path style="fill:#D04E42;" d="M169.303,281.802H48.146c-19.382,0-35.094,15.712-35.094,35.094
		c0,19.382,15.712,35.094,35.094,35.094h198.558L169.303,281.802z"/>
	<path style="fill:#D04E42;" d="M466.338,281.891l-77.304,70.101h74.82c19.382,0,35.094-15.712,35.094-35.094
		C498.947,298.351,484.56,283.165,466.338,281.891z"/>
</g>
<path d="M406.879,172.663c-2.63,0-5.21-1.07-7.07-2.93c-0.461-0.47-0.88-0.98-1.24-1.52c-0.36-0.55-0.67-1.13-0.92-1.73
	c-0.25-0.6-0.44-1.23-0.57-1.87c-0.13-0.65-0.2-1.3-0.2-1.96c0-2.63,1.07-5.2,2.93-7.07c2.329-2.32,5.78-3.39,9.03-2.73
	c0.63,0.13,1.26,0.32,1.87,0.57c0.6,0.25,1.18,0.56,1.72,0.92c0.55,0.37,1.06,0.78,1.52,1.24c1.87,1.86,2.93,4.441,2.93,7.07
	c0,0.66-0.06,1.31-0.19,1.96c-0.13,0.64-0.32,1.27-0.57,1.87c-0.25,0.6-0.559,1.18-0.92,1.73c-0.37,0.54-0.78,1.05-1.25,1.52
	c-0.46,0.46-0.97,0.87-1.52,1.24c-0.54,0.36-1.12,0.67-1.72,0.92c-0.61,0.25-1.24,0.44-1.87,0.57
	C408.189,172.593,407.529,172.663,406.879,172.663z"/>
<path d="M105.489,397.833c-0.65,0-1.31-0.07-1.95-0.2s-1.27-0.32-1.87-0.57c-0.61-0.25-1.19-0.56-1.73-0.92
	c-0.55-0.36-1.06-0.78-1.52-1.24c-0.46-0.46-0.88-0.98-1.24-1.52c-0.36-0.55-0.67-1.13-0.92-1.73c-0.25-0.6-0.45-1.23-0.57-1.87
	c-0.13-0.65-0.2-1.3-0.2-1.95c0-0.66,0.07-1.309,0.2-1.96c0.12-0.64,0.32-1.27,0.57-1.87c0.25-0.6,0.56-1.18,0.92-1.73
	c0.36-0.54,0.78-1.06,1.24-1.52c0.46-0.46,0.97-0.88,1.52-1.24c0.54-0.36,1.12-0.67,1.73-0.92c0.6-0.25,1.23-0.44,1.87-0.57
	c1.29-0.26,2.61-0.26,3.9,0c0.64,0.13,1.27,0.32,1.88,0.57c0.6,0.25,1.18,0.56,1.72,0.92c0.55,0.36,1.06,0.78,1.52,1.24
	c0.46,0.46,0.88,0.98,1.25,1.52c0.36,0.55,0.66,1.13,0.91,1.73c0.25,0.6,0.45,1.23,0.57,1.87c0.13,0.65,0.2,1.3,0.2,1.96
	c0,0.65-0.07,1.3-0.2,1.95c-0.12,0.64-0.32,1.27-0.57,1.87c-0.25,0.6-0.55,1.18-0.91,1.73c-0.37,0.54-0.79,1.06-1.25,1.52
	c-0.461,0.46-0.97,0.88-1.52,1.24c-0.54,0.36-1.12,0.67-1.72,0.92c-0.61,0.25-1.24,0.44-1.88,0.57S106.139,397.833,105.489,397.833z
	"/>
<path d="M511.999,222.725c0-14.215-9.228-26.315-22.007-30.624c-1.628-74.155-62.456-133.978-136.994-133.978H159.002
	c-74.538,0-135.366,59.823-136.994,133.978C9.228,196.411,0,208.51,0,222.725c0,5.429,1.386,10.626,3.847,15.203
	c-0.528,2.767-0.795,5.585-0.795,8.427v0.708c0,14.06,6.519,26.625,16.693,34.833c-10.178,8.275-16.693,20.891-16.693,35.001
	c0,15.114,7.475,28.515,18.921,36.702v26.668c0,40.588,33.021,73.608,73.608,73.608h320.836c40.588,0,73.608-33.021,73.608-73.608
	v-26.668c11.446-8.186,18.921-21.587,18.921-36.702c0-13.852-6.354-26.385-16.361-34.702c9.983-8.212,16.361-20.656,16.361-34.562
	v-0.708c0-2.985-0.294-5.944-0.877-8.845C510.582,233.466,511.999,228.214,511.999,222.725z M488.141,253.906
	c-2.433,9.276-10.129,16.443-19.691,18.102c-0.655-0.135-1.33-0.205-2.016-0.205h-5.31c0.087-0.076,0.175-0.151,0.262-0.227
	c0.034-0.029,0.067-0.058,0.101-0.087c0.114-0.099,0.228-0.199,0.342-0.298c0.848-0.738,1.682-1.469,2.501-2.187
	c4.105-3.601,8.089-7.095,12.04-9.819c3.446-2.375,6.868-4.164,10.326-4.925c0.12-0.027,0.24-0.054,0.359-0.081
	c0.013-0.003,0.027-0.006,0.04-0.01c0.106-0.025,0.212-0.05,0.317-0.076c0.022-0.005,0.044-0.011,0.065-0.016
	c0.094-0.023,0.187-0.046,0.28-0.07c0.047-0.012,0.093-0.024,0.14-0.037c0.065-0.017,0.131-0.034,0.196-0.052
	C488.11,253.914,488.125,253.91,488.141,253.906z M469.57,292.458c11.135,2.604,19.376,12.665,19.376,24.439
	c0,13.837-11.257,25.094-25.094,25.094h-48.906L469.57,292.458z M23.052,316.896c0-13.837,11.257-25.094,25.094-25.094h117.298
	l55.346,50.188H48.146C34.309,341.99,23.052,330.734,23.052,316.896z M360.215,291.802l-82.499,74.811l-82.499-74.811H360.215z
	 M358.021,366.614l-25.266-22.911l57.233-51.899l49.904,0.57L358.021,366.614z M300.686,271.802c0.849-0.842,1.677-1.675,2.49-2.493
	c9.531-9.587,17.059-17.16,32.89-17.16c15.832,0,23.359,7.573,32.89,17.162c0.812,0.817,1.64,1.65,2.489,2.491H300.686
	L300.686,271.802z M140.556,271.802c0.848-0.841,1.677-1.675,2.489-2.492c9.531-9.588,17.059-17.161,32.89-17.161
	c15.83,0,23.358,7.573,32.888,17.16c0.813,0.818,1.641,1.651,2.49,2.493H140.556z M312.587,361.99h10.563l17.466,15.839H295.12
	L312.587,361.99z M159.002,78.123h193.996c62.942,0,114.438,49.953,116.934,112.295H42.068c0.234-5.849,0.9-11.589,1.965-17.189
	h322.441c5.523,0,10-4.477,10-10s-4.477-10-10-10H49.737C66.633,109.346,109.24,78.123,159.002,78.123z M32.308,210.419h447.384
	c6.787,0,12.308,5.521,12.308,12.308c0,5.729-4.039,10.776-9.605,12.002c-1.555,0.343-3.066,0.773-4.536,1.281
	c-10.109,3.489-18.327,10.602-26.283,17.58c-0.145,0.127-0.289,0.254-0.434,0.381c-9.178,8.052-17.923,15.723-29.033,17.834h-13.146
	c-11.249-1.93-17.833-8.552-25.823-16.591c-10.213-10.275-22.923-23.062-47.074-23.062c-24.15,0-36.86,12.786-47.074,23.06
	c-7.992,8.04-14.576,14.663-25.829,16.593h-14.327c-11.253-1.93-17.837-8.553-25.829-16.593
	c-10.213-10.274-22.923-23.06-47.072-23.06c-24.151,0-36.861,12.787-47.074,23.062c-7.991,8.039-14.574,14.661-25.824,16.591h-7.065
	c-14.134,0-24.325-8.939-35.113-18.404c-9.248-8.112-18.81-16.501-31.252-19.241c-2.779-0.612-5.274-2.193-7.025-4.453
	c-0.352-0.454-0.738-0.872-1.153-1.252c-0.914-1.727-1.428-3.684-1.428-5.727C20,215.939,25.521,210.419,32.308,210.419z
	 M47.793,271.802c-11.253,0-20.774-7.551-23.765-17.852c0.422,0.111,0.847,0.215,1.275,0.309c7.421,1.634,14.68,8.002,22.365,14.744
	c1.045,0.917,2.113,1.854,3.206,2.799H47.793z M416.418,433.875H95.582c-29.56,0-53.608-24.049-53.608-53.608v-18.275h200.872
	l17.467,15.839H145.897c-5.523,0-10,4.477-10,10s4.477,10,10,10H467.07C459.782,418.789,439.828,433.875,416.418,433.875z
	 M470.026,361.99v15.839h-94.6l17.467-15.839H470.026z"/>
<g>
</g>
<g>
</g>
<g>
</g>
<g>
</g>
<g>
</g>
<g>
</g>
<g>
</g>
<g>
</g>
<g>
</g>
<g>
</g>
<g>
</g>
<g>
</g>
<g>
</g>
<g>
</g>
<g>
</g>
</svg>
