<svg id="Capa_1" enable-background="new 0 0 490.551 490.551" height="512" viewBox="0 0 490.551 490.551" width="512" xmlns="http://www.w3.org/2000/svg"><g><g><path d="m478.306 240.531c0 128.7-104.33 233.03-233.03 233.03-7.01 0-13.94-.31-20.79-.91-118.96-10.52-212.24-110.43-212.24-232.12s93.28-221.6 212.24-232.12c6.85-.6 13.78-.91 20.79-.91 128.699 0 233.03 104.33 233.03 233.03z" fill="#c8effe"/><ellipse cx="224.486" cy="240.531" fill="#eaf6ff" rx="212.24" ry="232.12"/><path d="m390.846 240.531c0 80.39-65.17 145.57-145.57 145.57-7.06 0-14-.5-20.79-1.47-70.55-10.09-124.78-70.77-124.78-144.1 0-73.34 54.23-134.01 124.78-144.1 6.79-.97 13.73-1.47 20.79-1.47 80.4 0 145.57 65.17 145.57 145.57z" fill="#c8effe"/><ellipse cx="224.486" cy="240.531" fill="#eaf6ff" rx="124.78" ry="144.1"/><path d="m247.216 88.281c4.55-41.88-9.92-58.49-43.07-71.72-19.45-7.76-40.69-10.22-61.31-7.34-5.81.81-11.57 2.03-17.22 3.69-63.8 18.78-99.11 49.52-81.15 116.09 8.26 30.64-6.17 68.04 16.21 97.82 9.14 12.16 20.3 18.56 32.78 21.24 28.19 6.05 63.14-6.81 96.94-14.95 1.23-.3 2.48-.57 3.75-.81h.03c3-.6 6.1-1.08 9.27-1.48 9.79-1.23 20.26-1.77 30.41-2.95 23.39-2.71 45.14-8.81 53.4-34.61 12.46-38.91-43.47-73.43-40.04-104.98z" fill="#fedba6"/><path d="m213.666 88.281c4.55-41.88-9.92-58.49-43.07-71.72-13.702-5.584-29.513-9.765-44.98-3.65-63.8 18.78-99.11 49.52-81.15 116.09 8.26 30.64-6.17 68.04 16.21 97.82 9.14 12.16 20.3 18.56 32.78 21.24 28.19 6.05 63.14-6.81 96.94-14.95 1.23-.3 2.48-.57 3.75-.81h.03c3-.6 6.1-1.08 9.27-1.48 21.02-4.23 43.07-15.12 50.26-37.56 12.46-38.91-43.47-73.43-40.04-104.98z" fill="#ffefd2"/><path d="m164.345 170.235c-22.474 6.615-46.064-6.251-52.68-28.725-6.615-22.486 6.251-46.064 28.725-52.68 22.486-6.615 46.076 6.251 52.68 28.725 6.616 22.486-6.239 46.065-28.725 52.68z" fill="#fee903"/><path d="m382.076 38.791c-46.35 0-83.92 37.57-83.92 83.92 0 46.34 37.57 83.92 83.92 83.92 46.34 0 83.92-37.58 83.92-83.92 0-46.35-37.58-83.92-83.92-83.92z" fill="#d7d0d6"/><path d="m433.796 122.711c0 28.55-23.17 51.72-51.72 51.72-6.34 0-12.42-1.15-18.04-3.25-19.68-7.31-33.68-26.26-33.68-48.47 0-22.23 14-41.17 33.68-48.49 5.62-2.09 11.7-3.24 18.04-3.24 28.55 0 51.72 23.16 51.72 51.73z" fill="#fb2b3a"/><path d="m397.733 122.711c0 22.208-14.017 41.162-33.697 48.473-19.679-7.311-33.686-26.265-33.686-48.473 0-22.23 14.006-41.173 33.686-48.495 19.68 7.323 33.697 26.265 33.697 48.495z" fill="#fd4755"/><g><path d="m127.435 351.401-31.933 20.481-22.64-22.056 31.933-20.481c17.14-10.994 30.885-26.528 39.736-44.856 10.036-21.29 27.104-35.834 47.45-46.808 17.466-9.92 31.897-24.433 41.719-41.969l14.462-25.829 22.64 22.056-14.462 25.829c-9.822 17.537-24.245 32.041-41.719 41.969-20.344 10.973-37.423 25.511-47.458 46.8-8.85 18.344-22.596 33.862-39.728 44.864z" fill="#bb5d4c"/><path d="m191.756 378.723c-5.764 5.917-12.193 11.187-19.187 15.707l-32.434 20.933-22.648-22.064 31.933-20.481c17.132-11.002 30.878-26.52 39.736-44.856 10.026-21.296 27.106-35.835 47.451-46.808 17.482-9.921 31.897-24.432 41.719-41.969l14.462-25.829 22.648 22.064-14.002 25.198c-9.767 17.575-24.158 32.141-41.607 42.124-20.316 11.036-37.38 25.25-47.563 46.575-5.208 10.915-12.154 20.831-20.508 29.406z" fill="#a44f3e"/><path d="m149.419 372.817-31.933 20.481-21.984-21.416 31.933-20.481c17.132-11.002 30.877-26.52 39.728-44.864 10.035-21.289 27.115-35.827 47.458-46.8 17.474-9.928 31.897-24.432 41.719-41.969l14.462-25.829 21.984 21.416-14.462 25.829c-9.822 17.537-24.237 32.049-41.719 41.969-20.345 10.973-37.425 25.512-47.451 46.808-8.857 18.336-22.603 33.855-39.735 44.856z" fill="#f1b0a2"/></g><g><path d="m254.179 419.109-31.933 20.481-22.64-22.056 31.933-20.481c17.14-10.994 30.885-26.528 39.736-44.856 10.036-21.29 27.104-35.834 47.45-46.808 17.466-9.92 31.897-24.433 41.719-41.969l14.462-25.829 22.64 22.056-14.462 25.829c-9.822 17.537-24.245 32.041-41.719 41.969-20.344 10.973-37.423 25.511-47.458 46.8-8.851 18.344-22.597 33.862-39.728 44.864z" fill="#bb5d4c"/><path d="m318.499 446.43c-5.764 5.917-12.193 11.187-19.187 15.707l-32.434 20.933-22.648-22.064 31.933-20.481c17.132-11.002 30.878-26.52 39.736-44.857 10.026-21.296 27.106-35.835 47.451-46.808 17.482-9.921 31.897-24.432 41.719-41.969l14.462-25.829 22.648 22.064-14.002 25.198c-9.767 17.575-24.158 32.141-41.607 42.124-20.316 11.036-37.38 25.25-47.563 46.575-5.208 10.916-12.154 20.832-20.508 29.407z" fill="#a44f3e"/><path d="m276.162 440.525-31.933 20.481-21.984-21.416 31.933-20.481c17.132-11.002 30.877-26.52 39.728-44.864 10.035-21.289 27.114-35.827 47.458-46.8 17.474-9.928 31.897-24.432 41.719-41.969l14.462-25.829 21.984 21.416-14.462 25.829c-9.822 17.537-24.237 32.049-41.719 41.969-20.345 10.973-37.425 25.512-47.451 46.808-8.857 18.336-22.603 33.854-39.735 44.856z" fill="#f1b0a2"/></g></g><g><path d="m485.806 240.531c0-30.74-5.728-60.639-16.993-88.925 3.035-9.086 4.683-18.802 4.683-28.896 0-50.409-41.011-91.42-91.42-91.42-5.367 0-10.625.469-15.741 1.361-36.621-21.365-78.412-32.651-121.059-32.651-15.739-.033-33.894 1.717-50.792 5.379-17.009-4.807-34.988-6.059-52.684-3.586-35.96 5.394-78.894 26.257-93.296 46.58-15.545 19.599-19.88 44.111-13.191 74.736-20.003 35.71-30.568 76.241-30.568 117.422 0 10.692.709 21.45 2.108 31.976.501 3.771 3.722 6.513 7.425 6.513.329 0 .662-.021.997-.066 4.106-.546 6.993-4.316 6.447-8.423-1.312-9.872-1.977-19.966-1.977-29.999 0-32.091 6.836-63.757 19.907-92.753 1.217 23.218-2.453 47.049 6.781 69.15 8.227 19.691 25.523 34.518 46.524 38.68 2.055 20.844 8.416 41.167 18.599 59.432-3.415 2.885-7.02 5.561-10.81 7.992l-31.933 20.48c-1.926 1.235-3.182 3.281-3.413 5.557-.23 2.276.59 4.533 2.229 6.129l22.64 22.057 21.979 21.412.004.004 22.648 22.064c2.38 1.621 4.577 3.306 9.301.93l32.438-20.937c6.866-4.437 13.264-9.598 19.057-15.344 8.326 2.842 19.53 5.673 29.411 6.882l-29.552 18.954c-1.925 1.235-3.182 3.281-3.413 5.558-.23 2.275.59 4.532 2.229 6.128l44.186 43.046c-4.483-.13-8.962-.382-13.412-.772-91.293-8.073-170.122-72.582-196.155-160.521-1.175-3.972-5.344-6.236-9.32-5.063-3.972 1.176-6.238 5.349-5.063 9.32 13.603 45.95 40.429 86.459 77.58 117.147 37.619 31.076 83.138 49.769 131.643 54.059 9.354.776 19.125 1.176 30.062.769l7.751 7.551c2.38 1.621 4.577 3.305 9.301.93l19.44-12.546c113.316-21.498 195.422-120.651 195.422-236.296zm-27.311-117.821c0 42.139-34.282 76.421-76.42 76.421s-76.42-34.282-76.42-76.421c0-42.138 34.282-76.42 76.42-76.42s76.42 34.283 76.42 76.42zm-233.356-106.828c6.683-.585 13.458-.882 20.137-.882 35.118 0 69.61 8.16 100.741 23.708-24.382 10.506-43.315 31.324-51.27 56.933-12.891-4.404-26.27-7.051-39.949-7.888 3.987-39.808-9.28-58.676-33.348-71.514 1.23-.129 2.46-.248 3.689-.357zm-158.468 206.433c-20.66-27.493-6.621-64.315-14.964-95.269-15.012-55.643 7.014-86.626 76.023-106.94 5.188-1.524 10.619-2.688 16.144-3.457 19.504-2.727 39.386-.347 57.493 6.878 28.822 11.502 42.674 24.55 38.393 63.943-1.831 16.838 9.13 32.514 20.733 49.111 12.41 17.751 25.231 36.101 19.718 54.051l-26.815-26.122c-1.67-1.627-4.004-2.39-6.31-2.05-2.308.334-4.329 1.724-5.468 3.758l-14.461 25.828c-6.961 12.428-16.411 23.22-27.699 31.748-34.09 4.947-69.347 24.458-104.428 16.934-11.65-2.501-20.926-8.524-28.359-18.413zm166.301 52.276c-15.031 8.116-29.016 18.578-39.549 32.145-10.197 13.134-15.573 28.909-26.718 41.484-13.32 15.028-31.525 24.82-48.253 35.549l-10.953-10.67c9.502-6.095 19.278-11.893 28.489-18.425 11.007-7.807 20.646-17.513 28.378-28.573 7.857-11.24 12.521-24.213 21.509-34.705 16.488-19.247 41.164-27.39 58.725-45.461 11.93-12.276 19.703-27.036 27.972-41.803l10.859 10.579c-13.241 23.647-25.934 45.938-50.459 59.88zm-123.754-17.479c17.341 0 35.976-4.409 54.404-9.269-11.34 9.7-19.892 20.757-25.844 33.384-4.01 8.304-9.099 15.975-15.091 22.85-7.582-14.628-12.518-30.593-14.493-46.977.342.004.682.012 1.024.012zm-.374 78.546c13.766-8.829 25.637-20.582 34.651-34.222 8.199-12.407 13.249-25.793 23.865-36.586 10.891-11.073 24.366-17.387 36.952-26.071 13.224-9.125 24.55-20.935 33.066-34.562 4.49-7.184 8.415-14.751 12.553-22.141l11.517 11.219c-7.568 13.516-14.479 27.726-24.913 39.319-18.224 20.25-45.075 28.757-62.763 49.828-8.192 9.759-12.675 21.181-19.488 31.774-7.434 11.559-17.187 21.541-28.526 29.302-9.569 6.55-19.529 12.574-29.29 18.835l-11.609-11.311zm59.658 52.469-27.414 17.693-11.605-11.306c10.242-6.569 20.91-12.744 30.678-20.015 10.823-8.056 20.233-17.978 27.711-29.208 6.728-10.103 10.979-21.491 18.714-30.956 16.405-20.077 41.611-28.24 59.572-46.533 12.137-12.361 20.029-27.31 28.397-42.255l11.538 11.241c-4.592 8.264-8.911 16.764-13.928 24.781-11.313 18.078-26.871 28.624-44.573 39.606-15.746 9.768-29.624 22.451-38.844 38.673-10.929 19.229-21.124 35.922-40.246 48.279zm38.003-15.048c4.862-6.388 9.055-13.256 12.526-20.532 8.407-17.604 22.507-31.337 44.376-43.216.048-.026.097-.054.145-.081 18.642-10.664 34.008-26.222 44.438-44.991l14.002-25.198c1.645-2.959 1.103-6.652-1.322-9.015l-28.76-28.019c.932-2.067 1.769-4.228 2.49-6.479 8.05-25.137-7.709-47.676-21.612-67.563-6.109-8.739-12.007-17.179-15.366-24.995 11.667 1.013 23.073 3.487 34.07 7.395-.546 4.032-.834 8.146-.834 12.325 0 49.986 40.325 90.723 90.151 91.405 1.343 6.942 2.157 14.007 2.426 21.116-3.388-4.221-9.876-8.147-14.872-1.306l-14.463 25.828c-9.138 16.316-22.557 29.826-38.81 39.074-24.325 13.135-40.878 29.547-50.569 50.106-5.384 11.15-12.708 21.162-21.568 29.626-5.842-.097-11.686-.536-17.404-1.353-6.436-.92-12.807-2.307-19.044-4.127zm192.81-101.24 10.86 10.579c-7.751 13.842-14.83 28.363-25.65 40.134-17.928 19.504-43.947 27.881-61.352 48.208-8.14 9.506-12.651 20.465-19.143 30.973-7.219 11.685-16.789 21.883-27.992 29.829-9.962 7.065-20.565 13.323-30.843 19.915l-10.953-10.671c10.243-6.569 20.912-12.745 30.68-20.016 10.823-8.056 20.233-17.98 27.708-29.212 6.724-10.105 10.976-21.489 18.713-30.953 16.266-19.896 41.177-28.025 59.073-46.029 12.387-12.463 20.414-27.603 28.899-42.757zm-163.727 131.526c17.515-11.235 31.72-27.058 41.257-45.528 9.096-17.617 21.042-31.058 38.021-41.568 17.287-10.701 32.834-21.105 44.941-37.917 6.45-8.957 11.483-18.953 16.867-28.569l11.517 11.22c-7.136 12.745-13.66 26.213-23.205 37.372-18.239 21.322-45.945 29.925-64.158 51.407-8.558 10.094-13.145 22.01-20.323 32.945-7.391 11.259-16.994 20.983-28.115 28.575-9.541 6.513-19.455 12.522-29.179 18.758l-11.61-11.31zm32.243 70.163-11.605-11.305 23.985-15.384c16.854-8.427 31.244-26.956 39.993-43.127 9.766-18.053 20.451-32.07 38.11-43.228 17.215-10.878 32.989-20.83 45.322-37.579 6.815-9.255 12.058-19.639 17.663-29.648l11.537 11.24c-7.59 13.659-14.531 27.926-25.153 39.556-18.154 19.876-44.674 28.295-62.183 49.136-8.138 9.686-12.641 21.051-19.369 31.596-7.688 12.047-17.839 22.274-29.681 30.25-9.416 6.34-19.08 12.337-28.619 18.493zm55.483-21.308c.184-.187.374-.368.557-.556 8.999-9.237 16.368-19.806 21.902-31.408 8.407-17.605 22.508-31.339 44.376-43.217.048-.026.097-.054.145-.081 18.642-10.664 34.008-26.222 44.438-44.991l14.002-25.198c1.645-2.959 1.103-6.652-1.322-9.015l-49.339-48.066c.18-3.047.274-6.114.274-9.157 0-9.226-.83-18.422-2.462-27.441 26.969-4.103 50.099-20.036 63.926-42.319 7.299 22.428 10.996 45.821 10.996 69.76-.001 95.852-60.154 179.615-147.493 211.689z"/><path d="m152.39 179.466c26.51 0 48.931-21.703 49.879-48.183 1.035-28.901-23.74-53.26-52.682-51.593-26.426 1.522-47.599 24.225-47.145 50.715.461 26.856 23.101 49.061 49.948 49.061zm-9.882-83.441c20.297-5.971 41.727 8.036 44.491 28.94 2.223 16.812-8.508 33.289-24.771 38.075-19.28 5.674-39.894-6.695-44.036-26.292-3.714-17.574 7.09-35.653 24.316-40.723z"/><path d="m361.41 178.207c23.677 8.847 50.948 1.239 66.772-18.382 14.975-18.568 17.272-45.085 5.623-65.926-11.605-20.763-35.127-32.814-58.762-30.004-25.78 3.065-47.015 23.423-51.358 48.985-4.685 27.576 11.506 55.587 37.725 65.327zm5.24-96.957c17.561-6.53 37.763-1.01 49.622 13.448 11.17 13.618 13.151 33.145 4.874 48.708-8.334 15.672-25.703 25.035-43.379 23.317-19.243-1.871-35.383-16.642-39.094-35.589-4.095-20.906 8.016-42.459 27.977-49.884z"/></g></g></svg>