<?xml version="1.0" encoding="iso-8859-1"?>
<!-- Generator: Adobe Illustrator 19.0.0, SVG Export Plug-In . SVG Version: 6.00 Build 0)  -->
<svg version="1.1" id="Capa_1" xmlns="http://www.w3.org/2000/svg" xmlns:xlink="http://www.w3.org/1999/xlink" x="0px" y="0px"
	 viewBox="0 0 512 512" style="enable-background:new 0 0 512 512;" xml:space="preserve">
<polygon style="fill:#E73835;" points="119.166,144.258 136.27,289.644 153.374,306.748 170.479,503.448 341.522,503.448 
	358.626,306.748 375.73,289.644 392.834,144.258 "/>
<rect x="93.509" y="101.497" style="fill:#7A0E1E;" width="324.982" height="42.761"/>
<path style="fill:#4F5052;" d="M264.552,101.497h-17.104V41.632c-0.009-3.062,1.625-5.892,4.276-7.423L311.589,0l8.552,14.847
	l-55.589,31.746V101.497L264.552,101.497z"/>
<path style="fill:#F5F5F7;" d="M264.552,503.448l27.94-41.906c24.716-37.074,25.862-85.068,2.933-123.279l0,0
	c-23.886-39.819-21.56-90.071,5.892-127.513l48.756-66.493h-85.521l-28.744,61.575c-19.456,41.7-16.933,90.336,6.739,129.796l0,0
	c24.365,40.588,26.298,90.815,5.131,133.157l-17.335,34.662L264.552,503.448L264.552,503.448z"/>
<path d="M418.491,92.945H264.552V46.592l55.589-31.746L311.589,0l-59.865,34.209c-2.651,1.531-4.285,4.362-4.276,7.423v51.313
	H93.509c-4.721,0-8.552,3.831-8.552,8.552v42.761c0,4.721,3.831,8.552,8.552,8.552h18.054l16.249,137.835
	c0.222,1.907,1.086,3.686,2.446,5.046l14.898,14.898l16.771,193.604c0.385,4.43,4.105,7.825,8.552,7.808h171.043
	c4.447,0.017,8.167-3.378,8.552-7.808l16.839-193.604l14.898-14.898c1.36-1.36,2.224-3.139,2.446-5.046l16.181-137.835h18.054
	c4.721,0,8.552-3.831,8.552-8.552v-42.761C427.043,96.776,423.212,92.945,418.491,92.945z M225.058,494.896h-46.737l-16.394-188.891
	c-0.171-2.001-1.043-3.883-2.472-5.302l-15-15.009L128.787,152.81h122.338l-23.091,49.423
	c-20.696,44.266-18.019,95.929,7.158,137.818c22.963,38.04,24.784,85.214,4.823,124.913L225.058,494.896z M244.181,494.896
	l11.118-22.236c22.603-44.933,20.559-98.324-5.431-141.384c-22.244-37.005-24.613-82.657-6.329-121.774L270,152.81h63.192
	l-38.775,52.878c-29.565,40.195-32.062,94.228-6.32,136.98c21.107,35.406,20.055,79.783-2.72,114.146l-25.4,38.083H244.181z
	 M367.58,285.693l-15,15.009c-1.428,1.42-2.301,3.301-2.472,5.302l-16.429,188.891h-53.143l19.071-28.615
	c26.418-39.87,27.649-91.354,3.156-132.43c-22.167-36.834-20.021-83.383,5.448-118.02l46.199-63.021h28.804L367.58,285.693z
	 M409.939,135.705H102.061v-25.656h307.877V135.705z"/>
<g>
</g>
<g>
</g>
<g>
</g>
<g>
</g>
<g>
</g>
<g>
</g>
<g>
</g>
<g>
</g>
<g>
</g>
<g>
</g>
<g>
</g>
<g>
</g>
<g>
</g>
<g>
</g>
<g>
</g>
</svg>
